<svg width="151" height="30" viewBox="0 0 151 30" fill="none" xmlns="http://www.w3.org/2000/svg">
<g id="logo-87" clip-path="url(#clip0_3_6)">
<path id="Vector" fill-rule="evenodd" clip-rule="evenodd" d="M19.1035 8.76398C17.8742 7.93988 16.4289 7.5 14.9505 7.5V0C17.9074 0 20.7979 0.879735 23.2565 2.52796C25.7152 4.17617 27.6314 6.51886 28.763 9.25973C29.8945 12.0006 30.1906 15.0167 29.6137 17.9263C29.0368 20.8361 27.613 23.5088 25.5221 25.6066C23.4312 27.7044 20.7673 29.133 17.8672 29.7118C14.9671 30.2906 11.961 29.9935 9.22917 28.8582C6.49734 27.7229 4.16239 25.8003 2.51961 23.3335C0.876832 20.8668 0 17.9667 0 15H7.47525C7.47525 16.4834 7.91367 17.9334 8.73505 19.1668C9.55643 20.4002 10.7239 21.3614 12.0899 21.9291C13.4557 22.4968 14.9588 22.6453 16.4088 22.3559C17.8589 22.0665 19.1908 21.3522 20.2363 20.3033C21.2817 19.2544 21.9937 17.918 22.2821 16.4632C22.5705 15.0083 22.4225 13.5003 21.8567 12.1299C21.2909 10.7594 20.3328 9.58807 19.1035 8.76398Z" fill="#007DFC"/>
<path id="Vector_2" fill-rule="evenodd" clip-rule="evenodd" d="M7.47524 3.9637e-06C7.47524 0.984918 7.2819 1.96019 6.90623 2.87013C6.53056 3.78007 5.97994 4.60686 5.2858 5.30331C4.59166 5.99975 3.7676 6.55219 2.86065 6.9291C1.95371 7.30601 0.98166 7.5 3.26751e-07 7.5L0 15C1.96332 15 3.90743 14.612 5.72131 13.8582C7.53519 13.1044 9.18334 11.9995 10.5716 10.6066C11.9599 9.21375 13.0611 7.56015 13.8125 5.74026C14.5638 3.92037 14.9505 1.96983 14.9505 0L7.47524 3.9637e-06Z" fill="#007DFC"/>
<path id="Vector_3" d="M93.9033 10.8394H90.2763V22.3986H93.9033V10.8394Z" fill="#007DFC"/>
<path id="Vector_4" d="M90.68 8.67495C91.059 9.0555 91.5329 9.24577 92.1018 9.24577C92.6706 9.24577 93.1371 9.0555 93.5004 8.67495C93.8644 8.27857 94.0461 7.80285 94.0461 7.24789C94.0461 6.67708 93.8644 6.20137 93.5004 5.82083C93.1371 5.44027 92.6706 5.25 92.1018 5.25C91.5329 5.25 91.059 5.44027 90.68 5.82083C90.3159 6.20137 90.1343 6.67708 90.1343 7.24789C90.1343 7.80285 90.3159 8.27857 90.68 8.67495Z" fill="#007DFC"/>
<path id="Vector_5" d="M38.2405 22.3986V5.60675H41.9624V19.1164H49.3824V22.3986H38.2405Z" fill="#007DFC"/>
<path id="Vector_6" fill-rule="evenodd" clip-rule="evenodd" d="M56.0848 22.6602C54.8995 22.6602 53.8249 22.3986 52.8608 21.8753C51.9126 21.3362 51.1619 20.6068 50.6088 19.6871C50.0557 18.7675 49.7791 17.7368 49.7791 16.5952C49.7791 15.4535 50.0557 14.4308 50.6088 13.527C51.1619 12.6232 51.9126 11.9096 52.8608 11.3864C53.8091 10.8472 54.8838 10.5777 56.0848 10.5777C57.2859 10.5777 58.3606 10.8394 59.3088 11.3626C60.2571 11.8858 61.0078 12.6073 61.5609 13.527C62.1141 14.4308 62.3906 15.4535 62.3906 16.5952C62.3906 17.7368 62.1141 18.7675 61.5609 19.6871C61.0078 20.6068 60.2571 21.3362 59.3088 21.8753C58.3606 22.3986 57.2859 22.6602 56.0848 22.6602ZM56.0848 19.3542C56.6064 19.3542 57.0647 19.2432 57.4598 19.0212C57.8549 18.7834 58.1552 18.4583 58.3606 18.046C58.5819 17.6179 58.6925 17.1343 58.6925 16.5952C58.6925 16.0561 58.5819 15.5883 58.3606 15.1919C58.1393 14.7796 57.8312 14.4625 57.4361 14.2405C57.0568 14.0026 56.6064 13.8838 56.0848 13.8838C55.5791 13.8838 55.1287 14.0026 54.7336 14.2405C54.3385 14.4625 54.0303 14.7796 53.8091 15.1919C53.5878 15.6042 53.4772 16.0798 53.4772 16.6189C53.4772 17.1422 53.5878 17.6179 53.8091 18.046C54.0303 18.4583 54.3385 18.7834 54.7336 19.0212C55.1287 19.2432 55.5791 19.3542 56.0848 19.3542Z" fill="#007DFC"/>
<path id="Vector_7" fill-rule="evenodd" clip-rule="evenodd" d="M65.2632 26.9176C66.2272 27.3616 67.3414 27.5836 68.6057 27.5836C69.8384 27.5836 70.9368 27.3378 71.9008 26.8462C72.8649 26.3547 73.6234 25.6729 74.1766 24.8008C74.7297 23.9287 75.0066 22.8981 75.0066 21.7088V10.8394H71.4504V11.616C71.1859 11.3926 70.8855 11.2051 70.5496 11.0534C69.9332 10.7521 69.2299 10.6015 68.4398 10.6015C67.3809 10.6015 66.4405 10.8552 65.6188 11.3626C64.7969 11.8541 64.149 12.5359 63.6748 13.408C63.2007 14.2643 62.9637 15.2315 62.9637 16.3098C62.9637 17.3722 63.2007 18.3394 63.6748 19.2115C64.149 20.0836 64.7969 20.7733 65.6188 21.2807C66.4405 21.7881 67.3809 22.0418 68.4398 22.0418C69.2141 22.0418 69.9174 21.8912 70.5496 21.5899C70.8558 21.444 71.1324 21.272 71.3793 21.0739V21.804C71.3793 22.6126 71.1185 23.239 70.597 23.683C70.0913 24.127 69.388 24.3489 68.4872 24.3489C67.7602 24.3489 67.1359 24.2221 66.6144 23.9683C66.1087 23.7147 65.6503 23.342 65.2394 22.8505L63.0111 25.0862C63.5642 25.879 64.3149 26.4895 65.2632 26.9176ZM70.431 18.4741C70.0675 18.6961 69.633 18.8071 69.1272 18.8071C68.6215 18.8071 68.179 18.6961 67.7997 18.4741C67.4362 18.2521 67.1517 17.9509 66.9463 17.5703C66.7408 17.1739 66.6381 16.7537 66.6381 16.3098C66.6381 15.8341 66.7408 15.406 66.9463 15.0254C67.1517 14.6449 67.4441 14.3436 67.8234 14.1216C68.2027 13.8996 68.6373 13.7886 69.1272 13.7886C69.633 13.7886 70.0675 13.8996 70.431 14.1216C70.8103 14.3436 71.0948 14.6449 71.2845 15.0254C71.4899 15.406 71.5926 15.8341 71.5926 16.3098C71.5926 16.7854 71.4899 17.2135 71.2845 17.5941C71.0948 17.9588 70.8103 18.2521 70.431 18.4741Z" fill="#007DFC"/>
<path id="Vector_8" fill-rule="evenodd" clip-rule="evenodd" d="M82.6396 22.6602C81.454 22.6602 80.3791 22.3986 79.4155 21.8753C78.4669 21.3362 77.7164 20.6068 77.1632 19.6871C76.6101 18.7675 76.3335 17.7368 76.3335 16.5952C76.3335 15.4535 76.6101 14.4308 77.1632 13.527C77.7164 12.6232 78.4669 11.9096 79.4155 11.3864C80.3634 10.8472 81.4383 10.5777 82.6396 10.5777C83.8401 10.5777 84.9151 10.8394 85.8629 11.3626C86.8116 11.8858 87.5621 12.6073 88.1152 13.527C88.6684 14.4308 88.945 15.4535 88.945 16.5952C88.945 17.7368 88.6684 18.7675 88.1152 19.6871C87.5621 20.6068 86.8116 21.3362 85.8629 21.8753C84.9151 22.3986 83.8401 22.6602 82.6396 22.6602ZM82.6396 19.3542C83.1606 19.3542 83.6189 19.2432 84.0143 19.0212C84.409 18.7834 84.7095 18.4583 84.9151 18.046C85.1364 17.6179 85.247 17.1343 85.247 16.5952C85.247 16.0561 85.1364 15.5883 84.9151 15.1919C84.6938 14.7796 84.3858 14.4625 83.9904 14.2405C83.6114 14.0026 83.1606 13.8838 82.6396 13.8838C82.1335 13.8838 81.6828 14.0026 81.2881 14.2405C80.8926 14.4625 80.5847 14.7796 80.3634 15.1919C80.1421 15.6042 80.0315 16.0798 80.0315 16.6189C80.0315 17.1422 80.1421 17.6179 80.3634 18.046C80.5847 18.4583 80.8926 18.7834 81.2881 19.0212C81.6828 19.2432 82.1335 19.3542 82.6396 19.3542Z" fill="#007DFC"/>
<path id="Vector_9" fill-rule="evenodd" clip-rule="evenodd" d="M102.621 22.6364C101.847 22.6364 101.136 22.4858 100.488 22.1845C100.147 22.026 99.8387 21.8367 99.5636 21.6166V27.2744H95.9837V10.8394H99.6107V11.6371C99.8738 11.4212 100.166 11.2345 100.488 11.0772C101.136 10.76 101.847 10.6015 102.621 10.6015C103.712 10.6015 104.676 10.8631 105.513 11.3864C106.367 11.9096 107.031 12.6232 107.505 13.527C107.995 14.4308 108.239 15.4615 108.239 16.6189C108.239 17.7765 107.995 18.8071 107.505 19.711C107.031 20.6148 106.367 21.3283 105.513 21.8515C104.676 22.3748 103.712 22.6364 102.621 22.6364ZM101.958 19.3542C102.479 19.3542 102.93 19.2352 103.309 18.9974C103.704 18.7596 104.012 18.4345 104.233 18.0223C104.455 17.61 104.565 17.1422 104.565 16.6189C104.565 16.0798 104.455 15.6042 104.233 15.1919C104.012 14.7796 103.704 14.4625 103.309 14.2405C102.93 14.0026 102.487 13.8838 101.981 13.8838C101.476 13.8838 101.025 14.0026 100.63 14.2405C100.251 14.4625 99.9508 14.7796 99.7295 15.1919C99.5083 15.6042 99.3976 16.0798 99.3976 16.6189C99.3976 17.1422 99.5 17.61 99.7056 18.0223C99.9269 18.4345 100.235 18.7596 100.63 18.9974C101.025 19.2352 101.468 19.3542 101.958 19.3542Z" fill="#007DFC"/>
<path id="Vector_10" d="M111.789 22.4224C112.453 22.5968 113.124 22.684 113.804 22.684C115.242 22.684 116.38 22.3511 117.218 21.6851C118.071 21.0191 118.498 20.1233 118.498 18.9974C118.498 18.2681 118.364 17.6813 118.095 17.2374C117.826 16.7776 117.479 16.4129 117.052 16.1433C116.625 15.8738 116.174 15.6596 115.7 15.5011C115.226 15.3425 114.776 15.2078 114.35 15.0968C113.923 14.9858 113.575 14.8589 113.306 14.7162C113.038 14.5735 112.903 14.3832 112.903 14.1454C112.903 13.9234 113.006 13.7569 113.211 13.6459C113.417 13.5191 113.725 13.4557 114.136 13.4557C114.563 13.4557 114.997 13.5428 115.44 13.7173C115.898 13.8917 116.309 14.193 116.672 14.6211L118.735 12.5281C118.214 11.8621 117.534 11.3626 116.696 11.0297C115.875 10.6808 114.974 10.5064 113.994 10.5064C113.062 10.5064 112.248 10.6649 111.552 10.982C110.856 11.2992 110.319 11.7353 109.94 12.2902C109.561 12.8293 109.371 13.4715 109.371 14.2168C109.371 14.9144 109.506 15.4932 109.774 15.953C110.042 16.397 110.391 16.7459 110.817 16.9995C111.244 17.2532 111.694 17.4515 112.168 17.5941C112.642 17.7368 113.093 17.8716 113.52 17.9985C113.946 18.1095 114.294 18.2443 114.563 18.4028C114.847 18.5456 114.989 18.7596 114.989 19.045C114.989 19.267 114.871 19.4414 114.634 19.5683C114.412 19.6951 114.089 19.7585 113.662 19.7585C113.045 19.7585 112.476 19.6475 111.955 19.4255C111.434 19.1877 110.983 18.8627 110.604 18.4504L108.541 20.5434C108.937 20.9715 109.411 21.3521 109.964 21.6851C110.533 22.0022 111.141 22.2479 111.789 22.4224Z" fill="#007DFC"/>
<path id="Vector_11" d="M125.112 22.6602C124.053 22.6602 123.113 22.4462 122.291 22.0181C121.485 21.5741 120.853 20.9715 120.395 20.2104C119.936 19.4335 119.707 18.5456 119.707 17.5466V10.8394H123.334V17.499C123.334 17.8954 123.397 18.2363 123.524 18.5217C123.666 18.8072 123.872 19.0292 124.14 19.1877C124.409 19.3463 124.733 19.4255 125.112 19.4255C125.649 19.4255 126.076 19.259 126.392 18.926C126.708 18.5772 126.866 18.1016 126.866 17.499V10.8394H130.493V17.5228C130.493 18.5376 130.264 19.4335 129.805 20.2104C129.347 20.9715 128.716 21.5741 127.909 22.0181C127.103 22.4462 126.171 22.6602 125.112 22.6602Z" fill="#007DFC"/>
<path id="Vector_12" d="M135.923 10.8394H132.296V22.3986H135.923V15.6438C135.923 15.2474 136.002 14.9144 136.16 14.6449C136.334 14.3753 136.564 14.1691 136.848 14.0265C137.133 13.8679 137.456 13.7886 137.82 13.7886C138.341 13.7886 138.776 13.9551 139.123 14.2881C139.487 14.6052 139.669 15.0571 139.669 15.6438V22.3986H143.296V15.6438C143.296 15.2474 143.375 14.9144 143.533 14.6449C143.707 14.3753 143.936 14.1691 144.221 14.0265C144.505 13.8679 144.829 13.7886 145.192 13.7886C145.714 13.7886 146.149 13.9551 146.496 14.2881C146.859 14.6052 147.041 15.0571 147.041 15.6438V22.3986H150.669V15.2395C150.669 14.2723 150.463 13.4477 150.052 12.7659C149.657 12.0682 149.112 11.537 148.417 11.1724C147.737 10.7917 146.954 10.6015 146.069 10.6015C145.169 10.6015 144.355 10.7997 143.628 11.1961C143.155 11.4487 142.743 11.7746 142.389 12.1739C142.06 11.7562 141.659 11.4145 141.186 11.1485C140.554 10.7839 139.835 10.6015 139.029 10.6015C138.175 10.6015 137.409 10.7839 136.73 11.1485C136.434 11.3002 136.165 11.482 135.923 11.6937V10.8394Z" fill="#007DFC"/>
</g>
<defs>
<clipPath id="clip0_3_6">
<rect width="151" height="30" fill="white"/>
</clipPath>
</defs>
</svg>
